<svg width="72" height="25" viewBox="0 0 480 168"><path d="M351.5 69.3c0-4.5 1.3-7.9 3.9-10.3 2.6-2.4 5.7-3.6 9.5-3.6s7 1.2 9.5 3.6c2.6 2.4 3.9 5.8 3.9 10.3v11.4h.4c.8-3.1 1.9-6.2 3.3-9.1 1.4-3 3-5.6 5-8 1.9-2.4 4.3-4.3 6.9-5.8s5.8-2.2 9.4-2.2c4.7 0 8.6 1.4 11.7 4.1 3 2.7 4.6 6.2 4.6 10.4 0 2.7-.4 5-1.2 6.9-.8 1.9-1.9 3.4-3.3 4.6s-3 2-4.8 2.5c-1.7.5-3.5.8-5.3.8h-5.3c-6 0-10.5 2.4-13.7 7.2s-4.8 13.4-4.8 25.7v34.5c0 3.9-1 7.4-3 10.4s-6 4.5-11.8 4.5-9.8-1.5-11.8-4.5-3.1-6.4-3.1-10.4v-83zM236 111.8c0-7.9 1.2-15.2 3.5-21.9 2.4-6.8 5.8-12.7 10.4-17.7 4.6-5 10.3-8.9 17.2-11.8 6.8-2.8 14.7-4.3 23.6-4.3s16.8 1.4 23.6 4.3c6.8 2.9 12.5 6.8 17.2 11.8 4.6 5 8.1 10.9 10.4 17.7 2.4 6.8 3.6 14.1 3.6 21.9 0 7.4-.9 14.5-2.8 21.2-1.9 6.7-5 12.6-9.3 17.8-4.3 5.1-10 9.2-16.9 12.3-7 3-15.5 4.6-25.7 4.6-10.1 0-18.7-1.5-25.7-4.6-7-3-12.6-7.1-16.9-12.3-4.3-5.2-7.5-11.1-9.3-17.8-2-6.6-2.9-13.7-2.9-21.2zm29.6 0c0 4.5.5 8.8 1.4 12.9s2.4 7.7 4.5 10.8c2 3.1 4.6 5.6 7.8 7.4 3.2 1.8 7 2.7 11.5 2.7s8.3-.9 11.5-2.7 5.8-4.3 7.8-7.4c2-3.1 3.5-6.7 4.4-10.8 1-4.1 1.4-8.4 1.4-12.9 0-4.9-.5-9.3-1.5-13.4-1-4-2.5-7.6-4.6-10.7-2-3-4.7-5.4-7.8-7.1-3.2-1.7-6.9-2.5-11.3-2.5-4.3 0-8.1.8-11.2 2.5-3.2 1.7-5.8 4.1-7.8 7.1s-3.6 6.6-4.6 10.7c-1 4.1-1.5 8.6-1.5 13.4zm-87.6-71c0-4.9 1.4-8.6 4.1-11.1 2.7-2.5 6.3-3.8 10.7-3.8 4.5 0 8 1.3 10.8 3.8 2.7 2.5 4 6.2 4 11.1v25.8h14.1c4.3 0 7.6.7 9.9 2.2 2.3 1.5 3.5 4 3.5 7.5s-1.2 6-3.5 7.5-5.6 2.3-9.9 2.3h-14.1v51.5c0 10.3 11.8 6.9 17.9 6.9 3.3 0 5.8.9 7.6 2.6 1.8 1.8 2.7 4.2 2.7 7.3 0 8.8-13.1 13.2-27.4 13.2-10.8 0-18.6-2.2-23.3-6.6-4.7-4.4-7.1-11-7.1-19.8V40.8zM59.5 112.4c0-7.9 1.2-15.2 3.5-21.9 2.4-6.8 5.8-12.6 10.5-17.7 4.6-5 10.3-8.9 17.2-11.8 6.8-2.8 14.7-4.3 23.6-4.3s16.8 1.4 23.6 4.3c6.8 2.8 12.6 6.8 17.2 11.8 9.9 10.7 14 25.2 14 39.6 0 7.4-.9 14.5-2.8 21.2-1.9 6.7-5 12.6-9.3 17.8-4.3 5.1-10 9.2-16.9 12.3-13.3 5.8-38.2 5.7-51.3 0-7-3-12.6-7.1-17-12.3-4.3-5.1-7.5-11.1-9.3-17.8-2-6.7-3-13.7-3-21.2zm29.7 0c0 4.5.5 8.8 1.4 12.9 1 4.1 2.4 7.7 4.5 10.9 2 3.1 4.6 5.6 7.8 7.4 3.2 1.8 7 2.7 11.5 2.7s8.3-.9 11.5-2.7c3.2-1.8 5.8-4.3 7.8-7.4 2-3.1 3.5-6.7 4.5-10.9.9-4.1 1.4-8.4 1.4-12.9 0-4.9-.5-9.3-1.5-13.4s-2.5-7.6-4.5-10.7c-2-3-4.7-5.4-7.8-7.1-3.2-1.7-6.9-2.5-11.3-2.5-4.3 0-8.1.9-11.3 2.5-3.2 1.7-5.8 4.1-7.8 7.1s-3.6 6.6-4.6 10.7c-1.1 4.1-1.6 8.6-1.6 13.4zM0 44v108.8c0 4.9 1.4 8.6 4.1 11.1s6.3 3.8 10.8 3.8 8-1.3 10.8-3.8c2.7-2.5 4-6.2 4-11.1V92.2h15.5c4.3 0 7.7-.8 9.9-2.2 2.3-1.5 3.5-4 3.5-7.5s-1.1-6-3.5-7.5c-2.3-1.5-5.6-2.2-9.9-2.2H29.6V46.1c0-2 .6-3.7 1.6-5 3-3.7 13.7-2.3 17.5-1.6 1.1.2 2.2.3 3.3.3 2.7 0 5-1 6.8-3s2.7-4.4 2.7-7.1c0-5-1.9-8.6-5.7-10.9-3.8-2.2-17.8-3.3-23.2-3.3-4.3 0-8.5.6-12.4 1.8s-7.4 3-10.4 5.5c-3.1 2.4-5.5 5.4-7.2 9S0 39.5 0 44z"></path><g><path d="M465.1 40.9h-4.2L453 28h-4.5v12.9h-4V11.2h8.7c2.8 0 5 .7 6.8 2 1.7 1.3 2.6 3.5 2.6 6.5 0 2.3-.6 4.1-1.7 5.4-1.2 1.3-2.5 2.1-4 2.4l8.2 13.4zm-6.5-21.2c0-1.6-.5-2.9-1.5-3.8s-2.6-1.4-4.8-1.4h-3.8v10.3h4.9c1.4 0 2.6-.4 3.7-1.1 1-.9 1.5-2.2 1.5-4z"></path><path d="M454 52c-14.3 0-26-11.7-26-26s11.7-26 26-26 26 11.7 26 26-11.7 26-26 26zm0-48c-12.1 0-22 9.9-22 22s9.9 22 22 22 22-9.9 22-22-9.9-22-22-22z"></path></g></svg>